<svg width="32" height="32" viewBox="0 0 32 32" fill="none" xmlns="http://www.w3.org/2000/svg">
  <!-- Background -->
  <rect width="32" height="32" rx="8" fill="url(#gradient)"/>
  
  <!-- Letters AC for AI-Classroom -->
  <path d="M10 22L14 10H16L20 22H18L14.8 12H15.2L12 22H10Z" fill="white"/>
  <path d="M21 22C19.5 22 18.5 21.5 18 20.5L19.5 19.5C19.8333 20.1667 20.3333 20.5 21 20.5C21.6667 20.5 22 20.1667 22 19.5C22 19 21.6667 18.5833 21 18.25L20 17.75C18.8333 17.0833 18.25 16.1667 18.25 15C18.25 14 18.5833 13.1667 19.25 12.5C19.9167 11.8333 20.8333 11.5 22 11.5C23.3333 11.5 24.25 12 24.75 13L23.25 14C22.9167 13.3333 22.5 13 22 13C21.3333 13 21 13.3333 21 14C21 14.5 21.3333 14.9167 22 15.25L23 15.75C24.1667 16.4167 24.75 17.3333 24.75 18.5C24.75 19.5 24.4167 20.3333 23.75 21C23.0833 21.6667 22.1667 22 21 22Z" fill="white"/>
  
  <!-- Brain circuit lines -->
  <circle cx="8" cy="8" r="1" fill="white" opacity="0.5"/>
  <circle cx="24" cy="8" r="1" fill="white" opacity="0.5"/>
  <circle cx="16" cy="6" r="1" fill="white" opacity="0.5"/>
  <path d="M8 8 L16 6 L24 8" stroke="white" stroke-width="0.5" opacity="0.3"/>
  <path d="M16 6 L16 10" stroke="white" stroke-width="0.5" opacity="0.3"/>
  
  <!-- Gradient definition -->
  <defs>
    <linearGradient id="gradient" x1="0" y1="0" x2="32" y2="32" gradientUnits="userSpaceOnUse">
      <stop offset="0%" stop-color="#0EA5E9"/>
      <stop offset="50%" stop-color="#8B5CF6"/>
      <stop offset="100%" stop-color="#EC4899"/>
    </linearGradient>
  </defs>
</svg>